<?xml version="1.0" encoding="utf-8"?>
<!-- Generator: Adobe Illustrator 23.1.0, SVG Export Plug-In . SVG Version: 6.00 Build 0)  -->
<svg version="1.1" id="Layer_1" xmlns="http://www.w3.org/2000/svg" xmlns:xlink="http://www.w3.org/1999/xlink" x="0px" y="0px"
	 viewBox="0 0 338 104.1" style="enable-background:new 0 0 338 104.1;" xml:space="preserve">
<style type="text/css">
	.st0{fill:#4D4D4F;}
	.st1{fill:#0075C9;}
	.st2{fill:#FFFFFF;}
	.st3{fill:#F15A31;}
</style>
<title>ifhe-logo</title>
<path class="st0" d="M130.6,13.3h3.6v15.6h-3.6V13.3z"/>
<path class="st0" d="M149.1,13.3h3.6v15.6h-2.2c-0.3,0-0.5-0.1-0.7-0.4l-5.3-8.3v8.7h-3.6V13.3h2.2c0.3,0,0.5,0.1,0.7,0.4l5.3,8.3
	V13.3z"/>
<path class="st0" d="M169.1,13.3v3.4h-3.6v12.1h-3.6V16.7h-3.6v-3.4H169.1L169.1,13.3z"/>
<path class="st0" d="M184.1,25.5v3.4h-9.3V13.3h9.3v3.4h-5.7v2.6h5.1v3.3h-5.1v2.8L184.1,25.5z"/>
<path class="st0" d="M202.8,28.2c0.3,0.4,0.1,0.7-0.3,0.7h-2.9c-0.3,0-0.5-0.1-0.7-0.3l-3.8-4.8h-1.4v5.1h-3.6V13.3h5.9
	c1.5,0,2.9,0.6,3.9,1.7c2,1.9,2.2,5,0.3,7.1c-0.4,0.5-0.9,0.8-1.5,1.1L202.8,28.2L202.8,28.2z M193.8,20.7h2.4c1-0.1,1.8-1,1.8-2
	c0,0,0,0,0,0c0.1-1-0.7-1.9-1.8-2c0,0,0,0,0,0h-2.4V20.7z"/>
<path class="st0" d="M216.5,13.3h3.6v15.6h-2.2c-0.3,0-0.5-0.1-0.7-0.4l-5.3-8.3v8.7h-3.6V13.3h2.6c0.1,0,0.1,0,0.2,0.1l5.5,8.6
	V13.3z"/>
<path class="st0" d="M254.1,13.3v3.4h-3.6v12.1H247V16.7h-3.6v-3.4H254.1z"/>
<path class="st0" d="M259.8,13.3h3.6v15.6h-3.6V13.3z"/>
<path class="st0" d="M269.5,21.1c0-4.5,3.6-8.1,8.1-8.1s8.1,3.6,8.1,8.1s-3.6,8.1-8.1,8.1c-4.4,0.1-8-3.5-8.1-7.9
	C269.5,21.2,269.5,21.2,269.5,21.1z M282.1,21.1c0.1-2.5-1.8-4.6-4.3-4.7c-2.5-0.1-4.6,1.8-4.7,4.3c0,0.1,0,0.3,0,0.4
	c-0.1,2.5,1.8,4.6,4.3,4.7c2.5,0.1,4.6-1.8,4.7-4.3C282.1,21.4,282.1,21.3,282.1,21.1z"/>
<path class="st0" d="M300,13.3h3.6v15.6h-2.2c-0.3,0-0.5-0.1-0.7-0.4l-5.3-8.3v8.7h-3.6V13.3h2.2c0.3,0,0.5,0.1,0.7,0.4L300,22V13.3
	z"/>
<path class="st0" d="M319.8,28.8l-0.7-2.3h-5.5l-0.8,2.3H309l5.1-15.5h4.6l5.1,15.5H319.8z M318.1,23.1l-1.7-5.9l-1.8,5.9H318.1z"/>
<path class="st0" d="M338,25.5v3.4h-8.9V13.3h3.6v12.1H338z"/>
<path class="st0" d="M134.1,37.6v3.2h5.6v3.4h-5.6v5.5h-3.6V34.1h9.2v3.4H134.1z"/>
<path class="st0" d="M155.3,46.3v3.4h-9.4V34.1h9.2v3.4h-5.7v2.6h5.1v3.3h-5.1v2.8H155.3z"/>
<path class="st0" d="M175.6,41.9c0.1,4.2-3.1,7.6-7.3,7.8c-0.1,0-0.2,0-0.3,0h-6.7V34.1h6.7c4.2,0,7.6,3.3,7.6,7.5
	C175.6,41.7,175.6,41.8,175.6,41.9z M172.2,41.9c0.2-2.2-1.4-4.1-3.6-4.3c-0.2,0-0.4,0-0.6,0h-3.1v8.7h3.1c2.2,0.1,4.1-1.6,4.2-3.8
	C172.2,42.3,172.2,42.1,172.2,41.9L172.2,41.9z"/>
<path class="st0" d="M191.1,46.3v3.4h-9.4V34.1h9.3v3.4h-5.7v2.6h5.1v3.3h-5.1v2.8H191.1L191.1,46.3z"/>
<path class="st0" d="M209.8,49c0.3,0.4,0.1,0.7-0.3,0.7h-2.9c-0.3,0-0.5-0.1-0.7-0.3l-3.8-4.8h-1.4v5.1h-3.6V34.1h5.9
	c1.5,0,2.8,0.6,3.9,1.6c2.1,1.8,2.2,5,0.4,7.1c-0.4,0.5-1,0.9-1.5,1.2L209.8,49L209.8,49z M200.8,41.5h2.4c1.1,0,2-0.9,2-2
	s-0.9-2-2-2h-2.4V41.5z"/>
<path class="st0" d="M242.6,34.1v3.4H239v12.1h-3.6V37.6h-3.6v-3.4H242.6z"/>
<path class="st0" d="M248.2,34.1h3.6v15.6h-3.6V34.1z"/>
<path class="st0" d="M257.9,41.9c0-4.5,3.6-8.1,8.1-8.1s8.1,3.6,8.1,8.1S270.5,50,266,50c0,0,0,0,0,0c-4.4,0.1-8-3.5-8.1-7.9
	C257.9,42,257.9,42,257.9,41.9z M270.5,41.9c0-2.5-2.1-4.5-4.6-4.5c-2.5,0-4.5,2.1-4.5,4.6c0,2.5,2.1,4.5,4.5,4.5
	c2.4,0.1,4.5-1.9,4.5-4.3C270.5,42.1,270.5,42,270.5,41.9z"/>
<path class="st0" d="M288.4,34.1h3.6v15.6h-2.2c-0.3,0-0.5-0.1-0.7-0.3l-5.3-8.3v8.7h-3.6V34.1h2.2c0.3,0,0.5,0.1,0.7,0.4l5.3,8.3
	V34.1z"/>
<path class="st0" d="M129.9,62.8c0-4.5,3.6-8.1,8.1-8.1c4.5,0,8.1,3.6,8.1,8.1s-3.6,8.1-8.1,8.1c-4.4,0.1-8-3.5-8.1-7.9
	C129.9,62.9,129.9,62.8,129.9,62.8z M142.5,62.8c0-2.5-2.1-4.5-4.6-4.4c-2.5,0-4.5,2.1-4.4,4.6c0,2.5,2.1,4.5,4.5,4.4
	c2.4,0.1,4.5-1.9,4.5-4.3C142.5,63,142.5,62.9,142.5,62.8z"/>
<path class="st0" d="M155.8,58.4v3.2h5.6V65h-5.6v5.5h-3.6V55h9.2v3.4H155.8z"/>
<path class="st0" d="M188.8,55v15.5h-3.6v-6.3h-4.4v6.3h-3.6V55h3.6v5.8h4.4V55H188.8z"/>
<path class="st0" d="M139.9,87.9v3.4h-9.3V75.8h9.2v3.4h-5.7v2.6h5.1v3.3h-5.1v2.8L139.9,87.9z"/>
<path class="st0" d="M154.3,75.8h3.6v15.6h-2.6c-0.1,0-0.1,0-0.2-0.1l-5.5-8.6v8.7H146V75.8h2.5c0.1,0,0.2,0,0.3,0.1l5.4,8.5
	L154.3,75.8z"/>
<path class="st0" d="M179.7,86v5.4h-3.3v-1.7c0,0,0-0.1-0.1-0.1c0,0-0.1,0-0.1,0.1c-1.1,1.3-2.9,2.1-4.6,2c-4.3,0-7.6-3.5-7.6-8.1
	c-0.1-4.4,3.3-8,7.7-8.1c0.1,0,0.3,0,0.4,0c3.3-0.1,6.3,1.9,7.4,5c0.1,0.4-0.1,0.6-0.5,0.6h-2.6c-0.3,0-0.5-0.1-0.6-0.4
	c-0.9-1.2-2.3-1.8-3.7-1.8c-2.4-0.1-4.4,1.7-4.5,4c0,0.2,0,0.4,0,0.6c0,3,1.9,4.8,4.5,4.8c1.7,0.1,3.4-0.9,4-2.5h-3.9v-3.2h7.6V86z"
	/>
<path class="st0" d="M186.1,75.8h3.6v15.6h-3.6V75.8z"/>
<path class="st0" d="M204.7,75.8h3.6v15.6h-2.6c-0.1,0-0.1,0-0.2-0.1l-5.5-8.6v8.7h-3.6V75.8h2.2c0.3,0,0.5,0.1,0.7,0.3l5.3,8.3
	L204.7,75.8z"/>
<path class="st0" d="M224.4,87.9v3.4H215V75.8h9.2v3.4h-5.7v2.6h5.1v3.3h-5.1v2.8L224.4,87.9z"/>
<path class="st0" d="M239.8,87.9v3.4h-9.3V75.8h9.2v3.4H234v2.6h5.1v3.3H234v2.8L239.8,87.9z"/>
<path class="st0" d="M258.5,90.7c0.3,0.3,0.1,0.7-0.3,0.7h-2.8c-0.3,0-0.5-0.1-0.7-0.3l-3.8-4.8h-1.4v5c0,0,0,0.1-0.1,0.1H246
	c0,0-0.1,0-0.1-0.1v0V75.9c0,0,0-0.1,0.1-0.1l0,0h5.8c1.5,0,2.9,0.6,3.9,1.6c2,1.9,2.2,5,0.3,7.1c-0.4,0.5-0.9,0.8-1.5,1.1
	L258.5,90.7L258.5,90.7z M249.5,83.1h2.4c1.1,0,2-0.9,2-2s-0.9-2-2-2h-2.5L249.5,83.1z"/>
<path class="st0" d="M264.1,75.8h3.4c0,0,0.1,0,0.1,0.1v0v15.4c0,0,0,0.1-0.1,0.1l0,0h-3.4c0,0-0.1,0-0.1-0.1L264.1,75.8
	C264.1,75.8,264.1,75.8,264.1,75.8z"/>
<path class="st0" d="M282.7,75.8h3.4c0,0,0.1,0,0.1,0.1v15.4c0,0,0,0.1-0.1,0.1h-2.5c-0.1,0-0.2-0.1-0.2-0.1l-5.4-8.6v8.6
	c0,0,0,0.1-0.1,0.1h-3.4c0,0-0.1,0-0.1-0.1v0V75.9c0,0,0-0.1,0.1-0.1l0,0h2.4c0.1,0,0.2,0.1,0.3,0.2l5.4,8.5L282.7,75.8
	C282.7,75.8,282.7,75.8,282.7,75.8z"/>
<path class="st0" d="M308,86v5.4h-3.3v-1.9c-1.1,1.4-2.9,2.2-4.7,2.1c-4.3,0-7.6-3.5-7.6-8.1c-0.1-4.4,3.3-8,7.7-8.1
	c0.1,0,0.3,0,0.4,0c3.3-0.1,6.3,1.9,7.5,5c0.1,0.4-0.1,0.6-0.5,0.6h-2.6c-0.3,0-0.5-0.1-0.6-0.4c-0.9-1.1-2.3-1.8-3.8-1.7
	c-2.4-0.1-4.4,1.7-4.5,4c0,0.2,0,0.4,0,0.6c0,3,1.9,4.8,4.5,4.8c1.7,0.1,3.4-0.9,4-2.5h-3.9v-3.2h7.5V86z"/>
<path class="st0" d="M224.8,49.6l-0.7-2.3h-5.4l-0.8,2.3H214l5.1-15.5h4.6l5.1,15.5H224.8z M223.1,44l-1.7-5.9l-1.8,5.9H223.1z"/>
<path class="st0" d="M236.3,28.8l-0.7-2.3h-5.5l-0.8,2.3h-3.9l5.1-15.5h4.6l5.1,15.5H236.3z M234.7,23.1l-1.7-5.9l-1.8,5.9H234.7z"
	/>
<ellipse class="st1" cx="52" cy="52" rx="52" ry="52"/>
<path class="st2" d="M52,91.8C30,91.9,12.1,74,12.1,52c0-22,17.8-39.9,39.8-39.9c22,0,39.9,17.8,39.9,39.8c0,0,0,0,0,0.1
	C91.8,74,74,91.8,52,91.8z M52,13.8c-21,0-38.1,17-38.1,38.1c0,21,17,38.1,38.1,38.1c21,0,38.1-17,38.1-38C90.1,31,73,13.9,52,13.8
	L52,13.8z"/>
<polygon class="st3" points="49.2,36.1 49.2,32.2 46.5,34.9 42.8,31.2 45.5,28.4 41.6,28.4 41.6,23.2 45.5,23.2 42.8,20.4 
	46.5,16.7 49.2,19.5 49.2,15.5 54.5,15.5 54.5,19.5 57.3,16.7 61,20.4 58.2,23.2 62.1,23.2 62.1,28.4 58.2,28.4 61,31.2 57.3,34.9 
	54.5,32.2 54.5,36.1 "/>
<path class="st2" d="M54,16v4.6l3.3-3.3l3,3L57,23.7h4.6V28H57l3.3,3.3l-3,3L54,31v4.6h-4.3V31l-3.3,3.3l-3-3l3.2-3.3h-4.6v-4.3h4.6
	l-3.3-3.3l3-3l3.3,3.3V16H54 M55,15h-6.3v3.2l-1.6-1.5L46.5,16l-0.7,0.7l-3,3l-0.7,0.7l0.7,0.7l1.5,1.5h-3.2V29h3.2l-1.5,1.6
	l-0.7,0.7l0.7,0.7l3,3l0.7,0.7l0.7-0.7l1.5-1.5v3.2H55v-3.2l1.5,1.5l0.7,0.7L58,35l3-3l0.7-0.7L61,30.6L59.4,29h3.2v-6.3h-3.2
	l1.6-1.6l0.7-0.7L61,19.7l-3-3L57.3,16l-0.7,0.7L55,18.2C55,18.2,55,15,55,15z"/>
<path class="st2" d="M25.9,26H39v19.3h26.1V26h13v52.2H65V58.2H39v19.9H25.9V26z"/>
<path class="st0" d="M203.6,67v3.4h-9.4V54.9h9.3v3.4h-5.7v2.6h5.1v3.3h-5.1V67H203.6L203.6,67z"/>
<path class="st0" d="M218.4,70.4l-0.7-2.3h-5.5l-0.8,2.3h-3.9l5.1-15.5h4.6l5.1,15.5H218.4z M216.7,64.8l-1.7-5.9l-1.8,5.9H216.7z"
	/>
<path class="st0" d="M235.4,67v3.4h-8.9V54.9h3.6V67H235.4z"/>
<path class="st0" d="M249.3,54.9v3.4h-3.6v12.1h-3.6V58.3h-3.6v-3.4H249.3z"/>
<path class="st0" d="M298.3,70.4l-0.7-2.3h-5.5l-0.8,2.3h-3.9l5.1-15.5h4.6l5.1,15.5H298.3z M296.6,64.8l-1.7-5.9l-1.8,5.9H296.6z"
	/>
<path class="st0" d="M318.1,69.8c0.3,0.4,0.1,0.7-0.3,0.7h-2.9c-0.3,0-0.5-0.1-0.7-0.3l-3.8-4.8H309v5.1h-3.5V54.9h5.9
	c1.5,0,2.9,0.6,3.9,1.7c2,1.9,2.2,5,0.3,7.1c-0.4,0.5-0.9,0.8-1.5,1.1L318.1,69.8L318.1,69.8z M309.1,62.2h2.4c1-0.1,1.8-1,1.8-2
	c0,0,0,0,0,0c0.1-1-0.7-1.9-1.8-2c0,0,0,0,0,0h-2.4V62.2z"/>
<path class="st0" d="M331.5,67v3.4h-9.3V54.9h9.3v3.4h-5.7v2.6h5.1v3.3h-5.1V67L331.5,67z"/>
<path class="st0" d="M264.7,54.7v15.5h-3.6V64h-4.4v6.3h-3.6V54.7h3.6v5.8h4.4v-5.8H264.7z"/>
<path class="st0" d="M281.6,65.5c-0.8,1.1-2.2,1.9-3.7,1.8c-2.5,0-4.5-2-4.5-4.5c0-2.5,2-4.6,4.5-4.6c1.6,0,2.9,0.7,3.8,1.9l2.9-2.1
	c-1.5-2.1-3.9-3.5-6.7-3.5c-4.5,0-8.1,3.7-8.1,8.1c0,0.1,0,0.1,0,0.2c0.1,4.4,3.7,8,8.1,7.9c0,0,0,0,0,0c2.7,0,5.1-1.3,6.5-3.4
	L281.6,65.5z"/>
</svg>
